<svg width="376" height="114" viewBox="0 0 376 114" fill="none" xmlns="http://www.w3.org/2000/svg">
<path d="M345.46 38.24L375.88 75.04H349.98L319.57 38.24L349.98 1.44002H375.88L345.46 38.24Z" fill="black"/>
<path d="M233.693 56.0867V75.0367H283.963V56.0867H233.693Z" fill="black"/>
<path d="M233.696 0.983521V19.9335H283.966V0.983521H233.696Z" fill="black"/>
<path d="M212.68 35.57C216.31 32.16 218.21 27.49 218.21 21.94C218.21 8.84002 209.08 1.63002 192.5 1.63002H161.19V75.65H194.03C211.91 75.65 222.59 67.18 222.59 52.99C222.59 44.58 219.17 38.61 212.68 35.57ZM191.68 30.24H179.72V17.92H191.58C199.29 17.92 200.18 21.43 200.18 24.08C200.18 26.95 199.22 30.24 191.68 30.24ZM179.72 46.02H194.53C202.98 46.02 204.15 49.27 204.15 52.79C204.15 56.2 202.97 59.36 194.43 59.36H179.72V46.02Z" fill="black"/>
<path d="M129.07 42.81C129.07 53.63 124.02 59.35 114.46 59.35C104.5 59.35 99.44 53.78 99.44 42.81V1.63002H80.4V43.73C80.4 64.61 93.06 77.08 114.26 77.08C135.46 77.08 148.11 64.61 148.11 43.73V1.63002H129.07V42.81Z" fill="black"/>
<path d="M319.89 38.24L289.47 75.04H315.37L345.78 38.24L315.37 1.44002H289.47L319.89 38.24Z" fill="#E30613"/>
<path d="M233.693 28.5428V47.4928H265.103V28.5428H233.693Z" fill="#E30613"/>
<path d="M1.41001 74H30.27L1.77001 33.42C1.67001 33.28 1.58001 33.13 1.50001 32.99H1.41001V74Z" fill="#E30613"/>
<path d="M72.11 26.15C72.11 12.61 61.42 1.58002 48.02 1.02002V0.990017H1.41001V19.31H44.39C48.16 19.31 51.22 22.37 51.22 26.14C51.22 29.91 48.16 32.97 44.39 32.97H18.17L46.97 74H68.03L51.76 50.84C63.35 48.6 72.11 38.4 72.11 26.15Z" fill="black"/>
<path d="M1.53001 110.94L3.51001 106.61C5.60001 107.79 7.69001 108.47 10.39 108.47C14.34 108.47 16.21 106.57 16.21 102.92V101.93C14.5 103.98 12.64 105.24 9.56001 105.24C4.81001 105.24 0.51001 101.78 0.51001 95.66C0.51001 89.58 4.88001 86.15 9.56001 86.15C12.72 86.15 14.58 87.48 16.14 89.19V86.53H21.92V102.31C21.92 105.96 21.05 108.62 19.33 110.33C17.43 112.23 14.5 113.07 10.55 113.07C7.23001 113.07 4.11001 112.3 1.53001 110.94ZM16.21 95.65C16.21 92.87 14.04 90.93 11.23 90.93C8.42001 90.93 6.29001 92.87 6.29001 95.72C6.29001 98.53 8.42001 100.44 11.23 100.44C14.04 100.44 16.21 98.5 16.21 95.65Z" fill="black"/>
<path d="M36.02 86.52H41.8V90.63C42.98 87.82 44.88 85.99 48.3 86.14V92.19H48C44.16 92.19 41.8 94.51 41.8 99.38V106.91H36.02V86.52Z" fill="black"/>
<path d="M59.29 96.75C59.29 90.89 64 86.14 70.35 86.14C76.66 86.14 81.34 90.82 81.34 96.75C81.34 102.61 76.63 107.36 70.28 107.36C63.96 107.36 59.29 102.68 59.29 96.75ZM75.64 96.75C75.64 93.75 73.47 91.12 70.28 91.12C66.97 91.12 64.99 93.67 64.99 96.75C64.99 99.75 67.16 102.38 70.35 102.38C73.66 102.38 75.64 99.83 75.64 96.75Z" fill="black"/>
<path d="M94.31 99.72V86.52H100.09V97.89C100.09 100.63 101.38 102.03 103.59 102.03C105.8 102.03 107.2 100.62 107.2 97.89V86.52H112.98V106.9H107.2V104.01C105.87 105.72 104.16 107.28 101.23 107.28C96.86 107.28 94.31 104.4 94.31 99.72Z" fill="black"/>
<path d="M127.09 86.52H132.87V89.45C134.28 87.55 136.22 86.14 139.22 86.14C143.97 86.14 148.5 89.87 148.5 96.75C148.5 103.56 144.05 107.28 139.22 107.28C136.14 107.28 134.24 105.87 132.87 104.24V112.99H127.09V86.52ZM142.71 96.68C142.71 93.3 140.43 91.05 137.73 91.05C135.03 91.05 132.79 93.29 132.79 96.75C132.79 100.13 135.03 102.38 137.73 102.38C140.43 102.38 142.71 100.17 142.71 96.68Z" fill="black"/>
</svg>
